<?xml version="1.0" standalone="no"?>
<!DOCTYPE svg PUBLIC "-//W3C//DTD SVG 20010904//EN"
 "http://www.w3.org/TR/2001/REC-SVG-20010904/DTD/svg10.dtd">
<svg version="1.0" xmlns="http://www.w3.org/2000/svg"
 width="435.000000pt" height="435.000000pt" viewBox="0 0 435.000000 435.000000"
 preserveAspectRatio="xMidYMid meet">
<metadata>
Created by potrace 1.14, written by Peter Selinger 2001-2017
</metadata>
<g transform="translate(0.000000,435.000000) scale(0.100000,-0.100000)"
fill="#000000" stroke="none">
<path d="M560 3325 l0 -725 133 0 c117 0 138 3 182 24 82 38 141 115 180 236
25 77 58 141 90 170 25 23 33 25 128 24 82 -1 118 -6 182 -27 44 -15 85 -30
92 -35 9 -5 2 -41 -28 -137 -224 -734 -279 -933 -321 -1152 -20 -103 -23 -151
-23 -373 0 -246 1 -259 27 -360 38 -142 135 -339 224 -449 219 -272 543 -401
903 -361 344 38 642 246 801 557 76 150 114 312 125 523 17 322 -38 608 -247
1280 -33 107 -80 257 -103 333 l-43 139 42 17 c116 50 293 69 354 37 36 -19
75 -81 109 -172 85 -236 186 -302 427 -279 l76 7 -2 721 -3 722 -1652 3 -1653
2 0 -725z m3030 -17 l-1 -433 -28 73 c-104 263 -318 466 -645 610 -202 89
-429 123 -579 88 -83 -20 -171 -20 -257 -1 -179 39 -377 3 -627 -115 -300
-142 -516 -360 -594 -600 -18 -55 -18 -51 -18 378 l-1 432 1375 0 1375 0 0
-432z m-1504 231 c32 -6 63 -13 67 -16 16 -10 -26 -43 -80 -63 -81 -30 -137
-26 -242 17 -50 20 -91 40 -91 44 0 24 242 37 346 18z m530 0 c32 -6 63 -13
68 -16 5 -4 -33 -23 -85 -44 -137 -55 -220 -52 -310 12 -17 12 -28 24 -24 27
26 27 248 40 351 21z m-719 -310 c119 -38 202 -124 244 -254 10 -31 14 -228
19 -845 5 -579 10 -818 19 -850 6 -25 16 -62 22 -84 6 -21 12 -36 15 -34 2 3
14 45 26 94 21 86 22 113 27 889 6 789 6 801 28 857 44 117 130 200 242 232
51 15 221 23 221 10 0 -3 -11 -24 -24 -47 -42 -72 -58 -150 -58 -271 0 -146 8
-188 101 -557 104 -409 167 -698 182 -829 14 -123 6 -353 -15 -450 -66 -304
-263 -524 -546 -611 -89 -27 -261 -32 -350 -10 -78 18 -225 92 -292 145 -143
113 -241 286 -290 511 -8 38 -13 122 -12 230 2 205 17 302 104 635 152 591
177 709 186 885 7 131 -10 231 -56 317 l-29 57 42 3 c64 6 126 -2 194 -23z"/>
</g>
</svg>
